<svg xmlns="http://www.w3.org/2000/svg" width="96" height="96" viewBox="0 0 96 96">
  <circle cx="48" cy="48" r="35" fill="#f5b93f"/>
  <circle cx="48" cy="48" r="29" fill="#ffd86a"/>
  <path fill="#b86d1e" fill-opacity=".55" d="M48 23c13.8 0 25 9.8 25 22 0 4.4-1.5 8.5-4 12-2.3-10.4-12.8-18.2-25.5-18.2-7.3 0-13.9 2.6-18.6 6.8C24.6 33.1 34.9 23 48 23Z"/>
  <path fill="#fff4a8" fill-opacity=".8" d="M29 39c3.1-7.2 10.3-12 18.9-12 2.6 0 4.7 1.1 4.7 2.5S50.5 32 47.9 32c-6.4 0-11.7 3.3-14 8.2-.8 1.8-2.6 2.8-4 2.3-1.3-.5-1.7-2-.9-3.5Z"/>
</svg>
