<svg xmlns="http://www.w3.org/2000/svg" width="128" height="128" viewBox="0 0 128 128">
  <g fill="none" fill-rule="evenodd">
    <path fill="#ff3f24" fill-opacity="0.72" d="M64 118c-24 0-43-17-43-39 0-15 8-27 22-38 9-7 15-18 15-31 19 12 31 27 31 45 6-5 10-13 10-23 11 11 17 25 17 40 0 26-23 46-52 46Z"/>
    <path fill="#ff9f24" fill-opacity="0.88" d="M65 113c-17 0-31-12-31-28 0-10 6-19 16-27 7-5 12-14 12-23 14 10 22 21 22 34 5-4 8-10 8-17 8 8 12 18 12 28 0 19-17 33-39 33Z"/>
    <path fill="#fff0a0" fill-opacity="0.92" d="M65 108c-10 0-19-7-19-17 0-7 4-12 10-17 4-3 7-9 7-15 9 6 14 14 14 22 3-3 5-6 5-11 5 5 8 12 8 18 0 12-11 20-25 20Z"/>
  </g>
</svg>
